<svg version="1.2" xmlns="http://www.w3.org/2000/svg" viewBox="0 0 3588 3294" width="3588" height="3294">
	<title>CNWS</title>
	<style>
		.s0 { fill: #32637a } 
		.s1 { fill: #fefefe } 
	</style>
	<g id="Layer_x0020_1">
		<path id="Layer" class="s0" d="m23.5 117.6c0-55.2 44.8-100 100-100h3354.3c55.2 0 99.9 44.8 99.9 100v3065.7c0 55.2-44.7 100-100 100h-3354.2c-55.2 0-100-44.8-100-100z"/>
		<path id="Layer" class="s1" d="m1240 1017.3l209.1 63.2c52.5 15.9 86.5 45.9 68.9 89.1-0.1 0.4-0.3 0.9-0.5 1.4-0.1 0.3-0.1 0.5-0.3 0.8-24.4 75.8-57.7 141.1-99.8 196.1-53.8 70.1-120.8 123-200.5 158.5-79.8 35.9-181.3 53.5-304.1 53.5-149.5 0-271.9-21.8-366.3-65-94.7-43.5-176.7-120.1-245.6-229.6-68.5-109.5-103.1-249.4-103.1-420.2 0-227.6 60.5-402.7 181.5-524.7 121-122.3 292.3-183.5 513.6-183.5 173.2 0 309.2 34.9 408.6 105 93.6 66.1 156 143.4 204 276 0.1 0.2 0.1 0.5 0.2 0.6l0.4 1.1c12.6 34.3 2.8 48.4-34.6 56.7l-264.9 59c-45.5 10.1-67.5-4-75.6-31.7-0.3-0.7-0.5-1.3-0.8-2.1-0.3-1.1-0.8-2.2-1.2-3.4-9.1-23.2-13.5-29.1-23.1-42.2-23.8-32.3-52.9-57.4-87.2-74.9-34.6-17.6-73-26.2-115.6-26.2-96 0-170 38.7-221.2 116.2-38.8 57.6-58.3 147.9-58.3 271.3 0 152.7 23.4 257.1 69.5 313.7 46.4 56.6 111.4 84.9 195 84.9 81.4 0 142.8-22.8 184.4-68.5 31.5-34.4 53.6-77.6 69.5-122.8 0.4-1 0.7-2.1 1.1-3.2l0.9-2.4c14.5-43.4 49.2-60.9 96-46.7zm953.5 1643.8l404.4-25.2c8.6 65.6 26.6 115.6 53.5 150.1 43.5 55.8 106.2 83.3 187.6 83.3 60.5 0 107.2-14.2 140.2-42.7 32.7-28.5 49-61.5 49-99 0-35.5-15.3-67.5-46.7-95.7-31.4-28.1-103.8-54.8-217.8-79.8-186.3-42-319.2-97.3-398.6-166.8-80-69.5-120.1-157.9-120.1-265.5 0-70.8 20.5-137.7 61.5-200.5 41-62.8 102.5-112.2 184.8-148.3 82.2-35.9 194.9-53.7 338.1-53.7 175.7 0 309.5 33.2 402.1 98 79.5 55.5 130.9 136.1 154.1 250.1 0 0.1 0.1 0.4 0.1 0.5l0.2 0.4c7.8 39-16.3 62.5-57 64.8l-289.3 16.9c-25.1 1.5-40.1-7.5-50.7-29.1-0.3-0.6-0.4-1.3-0.5-1.9q-0.4-1.3-0.8-2.6c-12.2-43.6-32-76.6-59.1-99-33.9-27.9-81-42-140.9-42-49.6 0-86.7 10.2-111.7 31.4q-37.5 31.3-37.5 76.5c0 21.7 10.2 41.2 30.7 58.8 20.1 18.3 67.5 34.9 142.8 50.7 185.7 40 318.6 80.7 399 121.6 80.3 41 139 91.6 175.5 152.4 36.5 60.5 55.1 128.3 55.1 203.6 0 88-24.6 169.4-73.4 243.6-48.6 74.6-116.9 131-204.6 169.4-87.4 38.4-197.9 57.6-331.1 57.6-233.8 0-395.8-44.9-485.8-135.1-90.2-90-141.2-204.3-153-343.3zm-1918.3-920.2h262.9c46.8-2 74.5 23.1 82 62.5l133.5 705.6 194.2-707.1c11.1-40.5 46.8-61.4 99.7-61.5l248.4-0.5c52.4-0.1 78.2 25.9 88.4 62.4l195.6 705.7 417-2265.1c8.6-46.8 40.5-63 85.7-63h250.7c49.1 0 84.3 18.2 104.2 47.4l485.5 713.6v-694.4c0-36.7 27.8-62.9 72.5-62.5l259.4 1.9c39.3 0.2 69.5 20.1 69.5 57.7l0.4 1313.5-401.8-1.8-587.4-842.4c-164 807.2-333.2 1597.5-510.6 2403h-416.6l-241.1-865.8-240.1 865.8h-416.7l-290.6-1307.3c-13.2-46.4 12.3-68 55.1-68z"/>
	</g>
</svg>