<svg version="1.2" xmlns="http://www.w3.org/2000/svg" viewBox="0 0 3588 3294" width="3588" height="3294">
	<title>CNWS</title>
	<style>
		.s0 { fill: #ffffff } 
		.s1 { fill: #32637a } 
	</style>
	<g id="Layer_x0020_1">
		<path id="Layer" class="s0" d="m23.5 117.6c0-55.2 44.8-100 100-100h3354.2c55.3 0 100 44.8 100 100v3065.6c0 55.3-44.7 100-100 100h-3354.2c-55.2 0-100-44.7-100-100z"/>
		<path id="Layer" class="s1" d="m1240 1017.2l209.1 63.3c52.5 15.9 86.5 45.9 68.9 89.1-0.1 0.4-0.3 0.9-0.5 1.4-0.1 0.2-0.1 0.5-0.3 0.7-24.5 75.9-57.7 141.2-99.8 196.2-53.8 70.1-120.8 123-200.5 158.5-79.8 35.8-181.3 53.5-304.2 53.5-149.5 0-271.8-21.8-366.2-65-94.8-43.5-176.8-120.2-245.6-229.7-68.5-109.5-103.2-249.3-103.2-420.1 0-227.6 60.5-402.7 181.5-524.7 121-122.3 292.4-183.5 513.7-183.5 173.2 0 309.2 34.8 408.6 105 93.6 66.1 156 143.3 204 276 0.1 0.2 0.1 0.5 0.2 0.6l0.4 1.1c12.6 34.3 2.8 48.4-34.6 56.6l-264.9 59c-45.5 10.2-67.5-4-75.6-31.6-0.3-0.7-0.5-1.4-0.8-2.1-0.3-1.1-0.8-2.3-1.2-3.4-9.1-23.2-13.5-29.1-23.1-42.2-23.8-32.3-52.9-57.4-87.2-74.9-34.6-17.6-73-26.3-115.6-26.3-96 0-170 38.8-221.2 116.3-38.8 57.6-58.3 147.9-58.3 271.2 0 152.8 23.4 257.2 69.5 313.8 46.4 56.6 111.4 84.9 195 84.9 81.4 0 142.8-22.8 184.4-68.5 31.5-34.4 53.6-77.7 69.5-122.8 0.4-1 0.7-2.1 1.1-3.2l0.9-2.4c14.5-43.4 49.2-60.9 96-46.8zm953.5 1643.9l404.4-25.2c8.6 65.6 26.6 115.6 53.5 150.1 43.5 55.7 106.2 83.2 187.6 83.2 60.5 0 107.2-14.1 140.2-42.6 32.7-28.5 49-61.5 49-99 0-35.5-15.3-67.5-46.7-95.7-31.4-28.2-103.8-54.8-217.8-79.8-186.3-42-319.2-97.4-398.6-166.9-80-69.5-120.1-157.8-120.1-265.5 0-70.7 20.5-137.6 61.5-200.5 41-62.7 102.5-112.1 184.7-148.2 82.3-35.9 195-53.8 338.2-53.8 175.7 0 309.5 33.3 402.1 98 79.5 55.5 130.9 136.2 154.1 250.2 0 0.1 0.1 0.3 0.1 0.5l0.2 0.3c7.8 39-16.3 62.5-57 64.9l-289.3 16.9c-25.1 1.5-40.1-7.5-50.7-29.1-0.3-0.7-0.4-1.3-0.5-1.9q-0.4-1.3-0.8-2.6c-12.2-43.7-32-76.7-59.1-99-33.9-27.9-81-42-140.9-42-49.6 0-86.7 10.2-111.7 31.3q-37.5 31.4-37.5 76.5c0 21.8 10.2 41.3 30.7 58.9 20.1 18.3 67.5 34.9 142.8 50.6 185.7 40 318.6 80.8 399 121.7 80.3 41 139 91.6 175.5 152.3 36.5 60.5 55.1 128.4 55.1 203.7 0 88-24.6 169.3-73.4 243.6-48.6 74.6-116.9 131-204.6 169.4-87.4 38.3-197.9 57.6-331.1 57.6-233.8 0-395.8-44.9-485.8-135.1-90.2-90-141.2-204.3-153-343.3zm-1918.4-920.2h263c46.8-2 74.6 23.1 82.1 62.5l133.5 705.6 194.1-707.1c11.1-40.5 46.9-61.4 99.7-61.5l248.4-0.5c52.4-0.1 78.3 25.9 88.4 62.4l195.6 705.7 417-2265.1c8.6-46.8 40.5-63 85.7-63h250.7c49.1 0 84.4 18.2 104.2 47.4l485.5 713.6v-694.4c0-36.7 27.8-62.9 72.5-62.5l259.4 1.9c39.2 0.2 69.5 20.1 69.5 57.7l0.4 1313.5-401.8-1.9-587.3-842.3c-164.1 807.2-333.3 1597.5-510.7 2403h-416.6l-241.1-865.8-240.1 865.8h-416.7l-290.6-1307.3c-13.3-46.4 12.2-68 55.1-68z"/>
	</g>
</svg>