<?xml version="1.0" standalone="no"?>
<!DOCTYPE svg PUBLIC "-//W3C//DTD SVG 20010904//EN"
 "http://www.w3.org/TR/2001/REC-SVG-20010904/DTD/svg10.dtd">
<svg version="1.0" xmlns="http://www.w3.org/2000/svg"
 width="1300.000000pt" height="591.000000pt" viewBox="0 0 1300.000000 591.000000"
 preserveAspectRatio="xMidYMid meet">

<g transform="translate(0.000000,591.000000) scale(0.100000,-0.100000)"
fill="#FF2800" stroke="none">
<path d="M11326 5551 c-4 -6 -13 -8 -20 -5 -7 3 -103 -11 -212 -30 -418 -74
-657 -116 -665 -116 -4 0 -9 -10 -11 -22 -2 -17 -17 -29 -61 -46 -60 -24 -86
-20 -113 17 -10 13 -88 1 -655 -99 -354 -62 -649 -115 -656 -117 -6 -3 -13
-14 -15 -26 -2 -12 -9 -21 -17 -19 -7 1 -18 -1 -25 -6 -17 -14 -57 4 -50 23 4
10 2 14 -7 11 -8 -3 -185 -35 -394 -71 -209 -36 -387 -68 -396 -71 -11 -3 -15
-12 -12 -23 3 -10 0 -22 -6 -26 -17 -10 -51 4 -51 22 0 12 -7 14 -32 10 -18
-4 -227 -40 -464 -82 -237 -41 -434 -75 -438 -75 -5 0 -3 -7 4 -15 10 -12 15
-12 34 0 28 19 39 10 66 -52 30 -71 23 -87 -36 -78 -39 6 -46 4 -41 -9 3 -8 1
-17 -6 -20 -7 -3 12 -4 42 -2 29 2 57 9 61 16 5 8 35 13 86 14 51 2 413 62
1019 169 814 145 1479 263 1760 312 402 71 1007 178 1078 191 48 9 90 14 93
11 4 -3 21 -39 38 -79 119 -274 373 -452 676 -476 l95 -7 57 -325 c31 -179 69
-386 83 -460 14 -74 27 -149 29 -165 2 -17 14 -90 27 -162 21 -124 24 -131 41
-122 11 6 26 8 35 5 23 -9 -4 -38 -28 -31 -24 8 -25 12 11 -190 16 -93 30
-177 30 -186 0 -10 -24 -26 -66 -44 -177 -75 -323 -212 -404 -379 -54 -111
-75 -188 -86 -313 -5 -63 -10 -84 -23 -87 -19 -6 -707 -126 -721 -126 -6 0
-10 -7 -10 -15 0 -17 -26 -21 -32 -5 -5 16 -169 -18 -185 -38 -10 -14 -14 -15
-22 -3 -7 11 -54 5 -272 -33 -145 -26 -340 -61 -434 -77 -212 -36 -217 -38
-210 -48 10 -17 -39 -80 -62 -81 -16 0 -23 -6 -23 -18 0 -11 -9 -27 -19 -36
-21 -19 -67 -18 -64 2 2 6 -4 12 -12 12 -24 0 -18 11 32 62 26 26 42 48 36 48
-7 0 -281 -48 -610 -106 -329 -58 -789 -139 -1022 -180 -233 -41 -430 -79
-437 -85 -7 -6 -18 -8 -24 -4 -12 8 -661 -105 -675 -117 -6 -5 -1 -11 12 -14
17 -5 20 -10 14 -23 -5 -9 -9 -23 -9 -31 3 -51 -3 -80 -17 -80 -8 0 -15 -9
-15 -20 0 -16 5 -19 23 -15 12 2 126 23 252 45 127 22 343 60 480 85 138 24
468 82 735 129 667 117 1242 219 1510 266 124 22 353 63 510 90 157 28 400 71
540 96 140 25 266 47 280 49 14 2 103 18 197 34 95 17 175 31 178 31 3 0 5 7
5 15 0 18 17 20 22 3 3 -8 41 -5 142 13 l138 24 -8 60 c-15 100 -9 244 11 305
74 228 247 383 475 427 47 9 86 17 88 19 2 1 -9 69 -23 150 -14 82 -40 228
-56 324 -21 122 -35 179 -46 187 -12 9 -13 16 -5 25 7 9 -14 148 -74 493 -46
264 -95 545 -109 625 -16 92 -32 154 -44 170 -18 25 -20 25 -142 21 -130 -4
-205 9 -293 48 -37 16 -44 16 -64 3 -28 -18 -44 -6 -18 14 11 7 18 15 15 17
-170 120 -249 235 -285 417 -18 93 -19 96 -28 81z m-3326 -676 c6 -8 9 -23 5
-35 -6 -18 -12 -20 -33 -15 -37 9 -45 19 -37 44 8 25 46 29 65 6z m-603 -37
c5 -7 10 -23 11 -35 0 -18 -5 -23 -22 -23 -35 0 -50 23 -34 49 15 24 31 27 45
9z m4931 -1106 c3 -9 -3 -10 -21 -3 -18 7 -27 7 -30 -2 -2 -7 -9 -2 -16 11
-18 34 -4 46 32 25 17 -10 32 -24 35 -31z m-8 -72 c0 -5 -4 -10 -10 -10 -5 0
-10 5 -10 10 0 6 5 10 10 10 6 0 10 -4 10 -10z m20 -35 c0 -8 -4 -15 -10 -15
-5 0 -10 7 -10 15 0 8 5 15 10 15 6 0 10 -7 10 -15z m-240 -635 c0 -5 -12 -10
-26 -10 -14 0 -23 4 -19 10 3 6 15 10 26 10 10 0 19 -4 19 -10z m-455 -739 c3
-5 1 -12 -5 -16 -5 -3 -10 1 -10 9 0 18 6 21 15 7z m-330 -151 c-3 -5 -11 -10
-16 -10 -6 0 -7 5 -4 10 3 6 11 10 16 10 6 0 7 -4 4 -10z m-3584 -580 c27 -15
24 -46 -6 -66 -30 -20 -71 -12 -80 16 -8 24 0 39 29 50 28 12 34 12 57 0z"/>
<path d="M10245 4875 c-412 -74 -802 -143 -865 -154 -63 -11 -270 -47 -460
-81 -190 -33 -549 -97 -799 -140 -250 -44 -457 -82 -459 -85 -5 -4 22 -9 40
-6 3 0 11 -13 17 -29 16 -47 47 -56 155 -42 117 15 122 17 130 53 3 16 10 29
16 29 13 0 13 -33 -1 -47 -7 -7 -4 -9 13 -7 38 7 789 139 1278 225 431 76 506
89 703 123 45 8 276 49 512 91 l430 76 24 -28 c91 -108 142 -160 218 -222 98
-78 261 -168 368 -202 39 -12 71 -23 72 -23 1 -1 32 -168 68 -372 36 -203 69
-376 72 -384 4 -8 7 -26 8 -40 0 -14 9 -78 20 -143 18 -115 18 -119 1 -129
-10 -6 -54 -42 -98 -80 -86 -76 -194 -213 -253 -320 -34 -63 -35 -67 -16 -73
29 -9 71 -45 71 -61 0 -9 -11 -14 -29 -14 -17 0 -33 -5 -36 -10 -4 -6 -11 -8
-16 -4 -6 3 -3 11 7 18 20 15 11 36 -15 36 -19 0 -27 -15 -56 -107 -9 -29 -20
-53 -25 -53 -4 0 -135 -22 -291 -50 -208 -37 -286 -54 -292 -66 -5 -9 -19 -14
-35 -12 -21 2 -26 -1 -24 -14 1 -9 -7 -22 -18 -28 -12 -6 -25 -22 -30 -36 -5
-13 -16 -24 -25 -24 -8 0 -15 -4 -15 -10 0 -5 6 -7 13 -5 6 3 191 36 409 74
219 38 402 72 407 75 5 3 15 30 21 58 29 122 105 283 180 377 22 28 40 52 40
54 0 2 -11 2 -25 -1 -20 -3 -24 -1 -19 11 7 19 39 31 54 22 6 -4 43 24 83 62
40 37 96 84 124 103 29 19 53 41 53 49 0 7 -16 102 -35 210 -67 375 -76 426
-81 453 -3 17 -13 28 -27 31 -22 4 -22 5 -1 11 20 7 20 9 -22 242 -22 129 -45
239 -50 243 -5 4 -40 15 -79 25 -91 23 -236 91 -329 156 -85 59 -226 200 -275
278 -19 28 -39 52 -45 51 -6 -1 -348 -61 -761 -134z m-2345 -460 c0 -8 -7 -15
-15 -15 -16 0 -20 12 -8 23 11 12 23 8 23 -8z m3865 -415 c-3 -5 -16 -10 -28
-10 -18 0 -19 2 -7 10 20 13 43 13 35 0z m61 -755 c-22 -17 -36 -19 -36 -7 0
14 12 22 34 22 21 -1 21 -1 2 -15z m-339 -317 c-3 -7 -5 -2 -5 12 0 14 2 19 5
13 2 -7 2 -19 0 -25z"/>
<path d="M6771 4754 c-41 -7 -82 -16 -90 -20 -9 -4 -20 -6 -25 -5 -21 5 -1062
-184 -1068 -193 -13 -18 -9 -55 8 -81 19 -29 12 -58 -14 -53 -9 1 -27 -7 -40
-20 -24 -24 -52 -29 -52 -9 0 7 -12 14 -27 15 -47 4 -51 20 -15 50 28 23 32
32 27 55 -4 15 -12 27 -17 27 -6 0 -177 -29 -382 -65 -204 -36 -420 -75 -481
-85 -60 -11 -249 -44 -420 -75 -170 -30 -471 -83 -667 -117 l-358 -63 0 -28
c0 -27 2 -28 30 -22 43 10 38 -17 -8 -43 -21 -12 -27 -9 -69 32 -33 33 -52 44
-67 41 -37 -8 -883 -157 -1161 -205 -27 -5 -217 -38 -421 -74 -205 -36 -374
-66 -376 -66 -3 0 -3 -13 0 -30 4 -26 6 -27 19 -15 23 24 33 18 33 -20 0 -27
-4 -35 -17 -35 -16 0 -18 -12 -19 -108 -1 -118 -21 -193 -76 -289 -37 -66
-117 -154 -175 -195 -43 -29 -45 -32 -39 -72 16 -114 16 -113 -3 -130 -14 -12
-24 -14 -43 -7 -34 13 -49 34 -55 82 l-6 41 -46 -7 c-84 -12 -141 -27 -141
-35 0 -11 168 -966 175 -997 3 -13 11 -23 18 -23 19 -1 70 -57 62 -69 -10 -18
-46 -13 -43 5 2 10 -3 19 -9 21 -8 3 -13 -4 -13 -19 0 -31 10 -44 45 -62 l30
-16 -27 0 c-21 0 -28 -5 -28 -19 0 -10 30 -187 66 -393 36 -205 68 -388 71
-406 4 -23 10 -31 20 -28 8 4 26 6 39 6 14 0 36 12 50 27 25 26 26 27 57 10
18 -9 68 -21 112 -28 95 -13 188 -47 250 -89 30 -21 45 -26 45 -17 0 39 97 82
161 71 l34 -6 -40 36 c-135 121 -309 190 -505 199 l-65 3 -48 270 c-60 342
-214 1216 -231 1313 -12 72 -12 74 8 79 12 3 59 25 106 48 254 128 419 382
433 666 l4 83 154 28 c209 37 981 173 1374 242 389 67 365 62 365 81 0 23 31
30 45 10 12 -16 30 -14 265 28 139 26 260 46 268 46 8 0 24 8 35 18 11 9 17
11 12 3 -6 -10 -1 -12 21 -7 16 3 313 55 659 116 347 61 677 119 735 130 58
10 260 46 450 79 190 34 531 94 759 134 l415 73 12 63 c14 66 27 91 50 91 18
0 18 8 0 26 -17 17 -36 16 -135 -2z m-427 -145 c21 -12 36 -29 36 -40 0 -17
-8 -19 -63 -19 -67 0 -87 10 -87 46 0 38 61 44 114 13z m-1664 -308 c0 -12
-39 -21 -45 -11 -3 5 1 11 7 13 21 9 38 8 38 -2z m-2120 -311 c0 -5 -4 -10
-10 -10 -5 0 -10 5 -10 10 0 6 5 10 10 10 6 0 10 -4 10 -10z m-180 -68 c0 -16
-25 -32 -51 -32 -31 0 -58 25 -37 33 21 9 88 8 88 -1z m-226 -88 c18 -7 21
-30 5 -39 -11 -7 -49 22 -49 37 0 9 22 11 44 2z m-104 -34 c0 -5 -12 -10 -26
-10 -14 0 -23 4 -19 10 3 6 15 10 26 10 10 0 19 -4 19 -10z m-120 -19 c0 -5
-7 -14 -15 -21 -13 -10 -15 -9 -15 9 0 12 6 21 15 21 8 0 15 -4 15 -9z m-230
-45 c0 -3 -4 -8 -10 -11 -5 -3 -10 -1 -10 4 0 6 5 11 10 11 6 0 10 -2 10 -4z
m95 -16 c0 -22 -29 -18 -33 3 -3 14 1 18 15 15 10 -2 18 -10 18 -18z m-1185
-940 c0 -5 -2 -10 -4 -10 -3 0 -8 5 -11 10 -3 6 -1 10 4 10 6 0 11 -4 11 -10z
m-2 -51 c-2 -6 -8 -10 -13 -10 -5 0 -11 4 -13 10 -2 6 4 11 13 11 9 0 15 -5
13 -11z m105 -84 c1 -5 -6 -11 -15 -13 -11 -2 -18 3 -18 13 0 17 30 18 33 0z
m87 -405 c0 -5 -5 -10 -11 -10 -5 0 -7 5 -4 10 3 6 8 10 11 10 2 0 4 -4 4 -10z
m-20 -81 c0 -6 -4 -7 -10 -4 -5 3 -10 11 -10 16 0 6 5 7 10 4 6 -3 10 -11 10
-16z m17 -64 c3 -9 3 -19 -1 -22 -8 -9 -37 18 -30 28 8 14 24 11 31 -6z m-47
-115 c0 -5 -4 -10 -9 -10 -6 0 -13 5 -16 10 -3 6 1 10 9 10 9 0 16 -4 16 -10z
m153 -937 c-5 -34 -29 -45 -39 -18 -8 19 25 71 36 59 4 -5 6 -24 3 -41z"/>
<path d="M7000 4625 c-14 -16 -3 -20 19 -6 8 5 9 11 3 15 -5 3 -15 -1 -22 -9z"/>
<path d="M7364 4366 c-94 -17 -178 -37 -187 -44 -9 -8 -25 -11 -37 -7 -26 8
-158 -13 -166 -27 -3 -5 -1 -22 6 -38 9 -21 9 -34 0 -49 -13 -26 -14 -26 115
0 55 11 111 21 125 23 76 10 121 19 125 27 3 4 12 6 19 3 12 -5 346 52 354 60
2 2 -15 7 -37 11 -23 4 -45 14 -51 23 -9 16 -11 15 -25 -2 -17 -22 -45 -15
-45 12 0 38 -21 39 -196 8z"/>
<path d="M6105 4145 c-412 -73 -853 -152 -980 -174 -126 -23 -738 -131 -1360
-240 -621 -110 -1274 -225 -1450 -256 -176 -31 -410 -72 -520 -91 -110 -19
-207 -37 -216 -40 -10 -3 -24 -33 -38 -86 -60 -227 -219 -454 -413 -592 -38
-27 -68 -55 -68 -64 1 -48 109 -624 120 -637 7 -8 10 -21 7 -29 -3 -8 1 -17 9
-20 11 -4 12 -9 3 -24 -9 -15 -7 -47 11 -148 12 -71 23 -130 25 -132 4 -5 83
38 94 52 7 8 2 58 -16 163 l-27 152 -24 -20 c-29 -22 -44 -25 -36 -5 3 8 -4
16 -18 20 -23 6 -23 6 6 21 15 8 37 15 48 15 16 0 18 5 13 33 -3 17 -25 141
-48 275 l-43 243 52 40 c172 133 328 352 398 561 15 45 32 75 43 80 10 4 173
34 363 67 190 33 539 95 775 136 497 88 447 79 1070 189 264 46 626 110 805
141 179 31 332 59 340 62 8 3 29 7 45 9 17 1 224 37 460 79 546 97 589 104
949 167 279 49 299 54 307 75 10 28 50 33 42 5 -4 -16 1 -18 31 -14 42 5 45
15 14 36 l-22 16 22 16 c17 12 20 19 12 29 -8 10 -7 14 2 18 41 17 -112 -8
-787 -128z m-85 -59 c0 -17 -27 -29 -35 -16 -4 6 -3 15 0 20 9 15 35 12 35 -4z
m-4780 -2196 c0 -5 -2 -10 -4 -10 -3 0 -8 5 -11 10 -3 6 -1 10 4 10 6 0 11 -4
11 -10z"/>
<path d="M10778 4255 c-65 -12 -120 -23 -122 -26 -5 -5 -56 -120 -56 -125 0
-3 11 -2 24 2 21 5 24 3 19 -14 -2 -11 0 -23 7 -27 8 -5 8 -10 -1 -21 -20 -24
-40 -17 -37 12 2 15 -2 29 -8 31 -12 4 -137 -264 -129 -277 3 -4 -1 -12 -8
-18 -13 -11 -45 16 -259 226 l-117 115 -108 -18 c-59 -10 -115 -21 -123 -26
-11 -6 48 -71 250 -274 146 -146 267 -268 269 -270 2 -3 21 -100 42 -216 20
-115 38 -212 40 -214 4 -3 140 19 185 30 17 4 20 10 16 30 -3 21 -10 25 -36
24 -17 0 -40 -4 -51 -8 -26 -11 -75 14 -75 37 0 27 16 44 36 40 19 -4 21 -10
8 -41 -6 -16 -2 -17 47 -11 30 4 56 8 58 10 4 3 -23 174 -36 231 -3 13 -10 20
-17 16 -8 -4 -8 -3 0 6 7 8 8 27 3 54 -7 37 -2 53 37 141 25 55 41 103 37 107
-5 5 -20 3 -34 -5 -14 -7 -39 -13 -57 -13 l-31 0 24 25 c16 16 30 22 44 17 10
-3 22 -1 26 5 3 5 16 8 29 4 20 -5 30 12 125 226 57 127 102 232 100 234 -2 1
-57 -7 -121 -19z m-122 -276 c7 -11 -22 -47 -30 -38 -8 7 5 49 15 49 4 0 11
-5 15 -11z m-416 -9 c0 -5 -5 -10 -11 -10 -5 0 -7 5 -4 10 3 6 8 10 11 10 2 0
4 -4 4 -10z m300 -180 c0 -5 -7 -10 -15 -10 -8 0 -15 5 -15 10 0 6 7 10 15 10
8 0 15 -4 15 -10z m-127 -62 c-21 -23 -29 -25 -49 -16 -18 8 -21 15 -14 28 14
26 40 33 41 12 0 -14 3 -13 16 6 12 17 18 20 24 10 5 -8 -1 -23 -18 -40z m79
20 c-7 -7 -12 -8 -12 -2 0 14 12 26 19 19 2 -3 -1 -11 -7 -17z m-255 6 c-3 -3
-12 -4 -19 -1 -8 3 -5 6 6 6 11 1 17 -2 13 -5z m88 -31 c-5 -10 -7 -21 -7 -25
1 -5 -2 -8 -8 -8 -5 0 -10 5 -10 11 0 7 -11 9 -31 5 -45 -9 -32 15 17 29 45
13 49 12 39 -12z m135 -2 c0 -6 -4 -13 -10 -16 -5 -3 -10 1 -10 9 0 9 5 16 10
16 6 0 10 -4 10 -9z m-120 -73 c0 -16 -3 -19 -11 -11 -6 6 -8 16 -5 22 11 17
16 13 16 -11z m90 -188 c0 -5 -4 -10 -10 -10 -5 0 -10 5 -10 10 0 6 5 10 10
10 6 0 10 -4 10 -10z"/>
<path d="M9240 3985 c-69 -13 -170 -31 -225 -41 -55 -9 -104 -20 -108 -24 -4
-4 19 -159 52 -346 33 -186 74 -420 91 -519 17 -99 33 -181 35 -183 5 -5 190
29 197 36 4 4 2 30 -3 57 -5 28 -18 102 -29 165 -11 63 -23 127 -26 142 -5 25
-2 27 33 33 68 12 74 15 64 33 -6 10 -4 20 4 29 18 17 22 17 57 -8 23 -17 39
-20 74 -16 38 4 46 2 56 -17 6 -11 47 -83 90 -159 65 -112 83 -136 94 -126 10
8 17 7 29 -4 14 -14 13 -17 -6 -30 -12 -9 -16 -18 -10 -21 8 -6 168 17 208 30
9 2 4 18 -16 51 -16 26 -70 119 -120 206 l-92 158 26 31 c47 56 75 130 76 202
1 56 -2 71 -20 90 -25 26 -26 36 -6 36 13 0 12 7 -5 40 -33 64 -86 117 -152
150 -55 27 -70 30 -152 29 -50 0 -147 -11 -216 -24z m-166 -210 c1 -44 -2 -50
-19 -50 -17 0 -20 7 -20 43 0 23 -4 42 -10 42 -5 0 -3 5 5 10 30 20 43 7 44
-45z m226 35 c0 -5 -5 -10 -11 -10 -5 0 -7 5 -4 10 3 6 8 10 11 10 2 0 4 -4 4
-10z m264 -63 c40 -54 12 -150 -51 -175 -23 -9 -300 -62 -324 -62 -4 0 -10 17
-13 38 -16 94 -17 95 -30 76 -10 -12 -15 -14 -20 -5 -4 6 -2 19 6 28 10 13 10
17 1 20 -17 6 -16 43 2 67 10 14 48 24 147 42 73 13 146 24 161 24 16 0 26 4
22 10 -14 22 80 -37 99 -63z m-384 -286 c0 -14 -18 -23 -30 -16 -6 4 -8 11 -5
16 8 12 35 12 35 0z m60 -43 c0 -4 -13 -8 -30 -8 -16 0 -30 4 -30 8 0 5 14 9
30 9 17 0 30 -4 30 -9z m440 -7 c0 -6 -4 -13 -10 -16 -5 -3 -10 1 -10 9 0 9 5
16 10 16 6 0 10 -4 10 -9z m-371 -15 c9 -11 9 -16 0 -22 -7 -4 -14 -3 -16 3
-2 6 -13 9 -23 6 -11 -3 -20 -1 -20 5 0 9 13 16 41 21 4 0 12 -5 18 -13z"/>
<path d="M8567 3867 c-40 -7 -56 -14 -53 -23 4 -10 -6 -12 -42 -8 -31 4 -131
-10 -301 -40 -140 -25 -256 -47 -258 -50 -6 -5 27 -189 36 -198 3 -3 65 4 136
17 72 13 135 24 142 25 6 0 14 -22 18 -50 7 -50 18 -69 30 -50 8 13 25 13 25
-1 0 -6 -9 -13 -20 -16 -11 -3 -20 -8 -20 -12 0 -7 48 -276 55 -312 6 -25 9
-27 47 -21 30 4 39 2 34 -6 -4 -7 -23 -12 -42 -12 -29 0 -34 -3 -30 -17 2 -10
13 -67 22 -127 16 -95 21 -109 41 -117 27 -10 29 -22 8 -39 -8 -7 -15 -23 -15
-36 0 -29 13 -30 123 -9 43 8 80 15 81 15 3 0 -35 227 -98 584 -26 142 -45
260 -44 262 2 1 57 12 123 23 66 12 130 23 141 26 21 5 21 6 8 82 -24 130 -21
123 -57 122 -17 -1 -58 -7 -90 -12z m-227 -163 c0 -3 -5 -15 -11 -26 -9 -17
-13 -18 -20 -7 -15 23 -10 39 11 39 11 0 20 -3 20 -6z m-55 -14 c3 -5 1 -10
-4 -10 -6 0 -11 5 -11 10 0 6 2 10 4 10 3 0 8 -4 11 -10z m121 -291 c9 -16
-15 -29 -53 -29 -31 0 -44 16 -26 33 11 11 71 8 79 -4z m61 -306 c-22 -22 -29
-25 -39 -14 -11 10 -9 15 6 27 11 8 29 14 40 14 19 0 18 -2 -7 -27z"/>
<path d="M7585 3693 c-44 -9 -81 -17 -83 -18 -3 -3 51 -330 63 -383 4 -18 10
-22 23 -17 9 4 28 10 42 13 22 4 23 3 12 -10 -7 -9 -25 -18 -41 -21 l-28 -6
18 -102 c10 -57 17 -104 16 -106 -2 -1 -43 38 -92 87 -76 77 -94 90 -122 90
-23 0 -33 5 -33 15 0 8 5 15 10 15 6 0 10 4 10 10 0 17 -292 310 -303 303 -5
-3 -7 -1 -4 4 4 6 1 15 -6 21 -14 12 -161 -11 -182 -28 -6 -5 -15 -7 -18 -3
-4 3 -7 -1 -7 -10 0 -15 161 -939 176 -1010 5 -26 9 -28 37 -23 18 3 62 10
100 17 79 13 76 3 47 163 -71 397 -90 503 -89 511 0 6 130 -122 288 -284 l288
-294 84 13 c46 7 87 14 90 16 12 7 -46 305 -61 314 -11 8 -12 12 -3 18 9 6 4
51 -23 192 -19 102 -36 193 -37 203 -1 9 -5 17 -10 17 -5 0 -6 8 -2 19 5 16
-26 221 -41 274 -6 20 -13 20 -119 0z m-578 -270 c-16 -16 -17 -16 -17 4 0 12
-5 25 -10 28 -6 4 -8 11 -5 16 3 5 16 0 28 -11 20 -19 20 -21 4 -37z m118
-143 c3 -5 1 -10 -4 -10 -6 0 -11 5 -11 10 0 6 2 10 4 10 3 0 8 -4 11 -10z
m-38 -176 c-3 -3 -12 -4 -19 -1 -8 3 -5 6 6 6 11 1 17 -2 13 -5z m513 -138 c0
-3 -4 -8 -10 -11 -5 -3 -10 -1 -10 4 0 6 5 11 10 11 6 0 10 -2 10 -4z"/>
<path d="M6225 3453 c-198 -35 -361 -65 -361 -66 -1 -1 7 -49 17 -107 10 -58
44 -251 76 -430 31 -179 60 -327 65 -328 4 -2 5 -8 2 -13 -6 -10 15 -146 25
-165 4 -7 126 10 390 57 211 38 385 70 387 72 2 1 -5 48 -15 102 l-18 100 -29
-3 c-16 -2 -143 -23 -282 -48 -139 -24 -257 -42 -261 -40 -8 5 -17 46 -27 125
-3 19 -9 52 -14 75 -5 22 -7 42 -5 44 2 2 71 16 154 31 83 15 153 30 155 32 2
2 -4 48 -12 102 -19 114 0 107 -192 73 -74 -13 -138 -22 -141 -20 -7 4 -33
163 -28 168 2 2 74 15 159 30 408 72 390 68 390 90 0 12 -7 56 -15 99 -8 43
-15 81 -15 83 0 9 -57 0 -405 -63z m-255 -178 c0 -8 -4 -15 -9 -15 -13 0 -22
16 -14 24 11 11 23 6 23 -9z m30 -255 c0 -5 -2 -10 -4 -10 -3 0 -8 5 -11 10
-3 6 -1 10 4 10 6 0 11 -4 11 -10z"/>
<path d="M9367 3339 c7 -7 15 -10 18 -7 3 3 -2 9 -12 12 -14 6 -15 5 -6 -5z"/>
<path d="M4965 3231 l-90 -17 0 -57 c3 -394 4 -409 26 -402 17 6 20 3 17 -12
-2 -10 -11 -17 -21 -17 -22 2 -23 -33 -2 -38 13 -2 13 -6 -3 -19 -19 -16 -23
-9 -133 232 -74 161 -117 245 -123 239 -15 -15 -26 -12 -26 5 0 10 -10 15 -27
15 -32 -1 -161 -25 -168 -31 -2 -3 -7 -50 -10 -104 -3 -55 -12 -176 -20 -270
-8 -93 -15 -179 -15 -190 -1 -40 -4 -34 -151 395 -22 63 -43 118 -47 122 -9 9
-183 -21 -196 -33 -9 -8 244 -759 257 -759 4 0 7 7 7 15 0 8 4 15 9 15 17 0
19 -25 3 -43 -15 -17 -13 -27 23 -133 28 -78 45 -114 55 -113 8 0 58 8 110 17
l95 17 11 100 c7 55 22 200 35 323 12 122 26 222 29 222 4 0 65 -129 135 -286
71 -157 133 -288 137 -290 4 -3 56 3 114 13 l106 18 -6 340 c-11 583 -17 745
-30 744 -6 -1 -51 -9 -101 -18z m55 -69 c0 -4 -13 -16 -30 -25 -26 -16 -30
-16 -30 -3 0 16 26 35 48 36 6 0 12 -4 12 -8z m-492 -190 c2 -7 -6 -12 -17
-12 -21 0 -27 11 -14 24 9 9 26 2 31 -12z m172 -104 c0 -12 4 -17 13 -12 6 4
9 4 5 0 -4 -5 -3 -19 2 -32 9 -24 9 -24 -15 -8 -38 25 -59 62 -44 80 15 18 39
1 39 -28z m80 -202 c0 -11 -19 -15 -25 -6 -3 5 1 10 9 10 9 0 16 -2 16 -4z
m-520 -206 c0 -12 -28 -25 -36 -17 -9 9 6 27 22 27 8 0 14 -5 14 -10z"/>
<path d="M3745 3015 c-5 -2 -54 -11 -107 -20 -94 -16 -121 -31 -78 -42 14 -4
20 -14 20 -33 0 -15 9 -35 19 -44 11 -10 22 -28 25 -42 4 -13 13 -24 20 -24 8
0 16 -6 18 -12 4 -10 20 -10 78 0 41 7 75 14 76 15 2 2 -5 48 -15 102 -17 97
-25 111 -56 100z"/>
<path d="M3220 2923 c-107 -19 -197 -37 -199 -39 -5 -4 4 -60 103 -623 41
-233 77 -425 78 -427 5 -5 766 131 773 138 7 6 -10 111 -27 168 l-10 35 -280
-49 c-200 -35 -282 -46 -287 -38 -4 6 -15 60 -25 119 -10 60 -23 111 -30 115
-8 5 -8 10 0 18 7 7 14 8 18 2 4 -8 293 33 305 44 2 1 -5 48 -14 103 -12 68
-22 101 -31 101 -8 0 -77 -11 -155 -25 -78 -13 -145 -23 -149 -20 -8 5 -20 71
-23 130 l-2 39 130 23 c191 33 201 35 188 40 -7 3 -13 13 -13 22 0 10 -9 26
-20 36 -11 10 -22 27 -26 39 -10 32 -66 86 -88 85 -12 -1 -109 -17 -216 -36z
m-9 -258 c0 -19 -29 -16 -34 4 -4 16 -1 18 15 12 11 -4 19 -11 19 -16z m309
-263 c0 -12 -3 -12 -15 -2 -8 7 -15 13 -15 15 0 1 7 2 15 2 8 0 15 -7 15 -15z
m-180 -22 c0 -5 -4 -10 -10 -10 -5 0 -10 5 -10 10 0 6 5 10 10 10 6 0 10 -4
10 -10z m450 -261 c0 -5 -7 -9 -15 -9 -9 0 -12 6 -9 15 6 15 24 11 24 -6z
m-280 -49 c0 -5 -2 -10 -4 -10 -3 0 -8 5 -11 10 -3 6 -1 10 4 10 6 0 11 -4 11
-10z m335 0 c3 -5 1 -10 -4 -10 -6 0 -11 5 -11 10 0 6 2 10 4 10 3 0 8 -4 11
-10z m-381 -171 c-8 -14 -34 -11 -34 4 0 8 3 17 7 20 9 9 34 -13 27 -24z"/>
<path d="M2650 2822 c-47 -8 -86 -16 -87 -17 -2 -1 4 -39 12 -85 9 -52 21 -87
30 -93 8 -4 15 -13 15 -18 0 -6 -4 -7 -10 -4 -15 10 -13 -16 25 -229 20 -109
34 -200 32 -202 -3 -4 -435 437 -519 528 l-24 27 -99 -18 c-54 -9 -100 -21
-102 -27 -6 -19 46 -287 57 -294 8 -5 9 -9 2 -11 -7 -3 -7 -20 -1 -54 9 -50
48 -272 95 -539 13 -77 26 -141 29 -144 2 -2 49 4 104 13 93 17 100 20 96 39
-12 50 -113 641 -110 644 1 2 132 -129 289 -291 l287 -293 87 16 87 16 -3 29
c-3 28 -139 816 -165 955 -9 43 -18 65 -27 66 -8 1 -53 -5 -100 -14z m-50
-752 c0 -5 -4 -10 -10 -10 -5 0 -10 5 -10 10 0 6 5 10 10 10 6 0 10 -4 10 -10z
m20 -20 c0 -5 -5 -10 -11 -10 -5 0 -7 5 -4 10 3 6 8 10 11 10 2 0 4 -4 4 -10z"/>
<path d="M10505 2525 c-38 -8 -160 -30 -270 -50 -110 -20 -209 -38 -220 -40
-11 -2 -32 -4 -47 -4 -15 -1 -33 -8 -41 -16 -9 -8 -17 -11 -19 -6 -2 5 -102
-8 -223 -30 -121 -22 -232 -42 -247 -44 -14 -2 -91 -15 -170 -29 -543 -96
-1319 -233 -1508 -266 -124 -22 -400 -71 -615 -109 -214 -38 -391 -73 -393
-79 -2 -6 -15 -9 -30 -6 -15 3 -248 -33 -517 -81 -270 -47 -643 -113 -830
-146 -187 -33 -378 -67 -425 -75 -47 -8 -123 -22 -170 -30 -47 -8 -224 -40
-395 -70 -170 -30 -400 -71 -510 -90 -110 -19 -564 -99 -1010 -178 l-810 -144
-29 37 c-68 85 -217 222 -296 273 -109 71 -155 94 -265 133 -95 35 -96 36
-110 117 l-6 38 -52 -26 c-29 -15 -53 -28 -55 -29 -4 -3 24 -155 29 -159 2 -2
40 -13 83 -25 225 -61 453 -222 590 -414 26 -37 55 -67 64 -67 10 0 121 18
247 41 127 22 304 53 395 69 91 16 320 56 510 90 190 34 496 88 680 120 184
32 439 77 565 100 127 23 282 50 345 61 63 11 214 38 335 59 121 21 272 48
335 59 90 16 2044 360 3392 598 114 20 206 39 205 42 -4 11 58 91 68 87 6 -1
10 -19 10 -39 0 -21 4 -37 9 -37 4 0 137 23 295 51 448 79 476 84 826 145 312
54 332 59 360 86 26 24 28 31 17 48 -6 11 -12 27 -12 35 0 8 -3 15 -7 14 -5
-1 -39 -7 -78 -14z"/>
<path d="M6705 1435 c-75 -15 -168 -31 -700 -125 -187 -33 -389 -69 -450 -80
-60 -10 -317 -56 -570 -100 -553 -96 -515 -89 -509 -103 2 -7 -1 -20 -8 -30
-16 -20 -78 -35 -78 -18 0 6 -7 11 -16 11 -10 0 -14 6 -10 15 3 8 3 15 0 15
-26 0 -351 -63 -358 -70 -5 -5 -14 -6 -22 -3 -7 2 -172 -23 -366 -58 -294 -51
-356 -65 -373 -83 -18 -19 -20 -19 -23 -3 -2 11 -10 16 -20 13 -9 -2 -205 -37
-436 -78 -320 -56 -409 -74 -380 -79 48 -8 114 -32 147 -54 18 -11 36 -14 60
-10 25 5 52 0 102 -20 l67 -27 352 62 c193 34 437 77 541 95 196 35 696 123
845 149 47 8 432 76 855 151 938 166 922 163 1225 216 135 23 248 45 253 49 4
3 4 24 -1 46 -7 33 -12 38 -30 36 -12 -2 -22 2 -22 7 0 6 5 11 10 11 6 0 10 8
10 18 0 10 7 28 16 40 15 21 14 22 -13 21 -15 0 -59 -7 -98 -14z m-459 -166
c3 -6 2 -15 -2 -19 -12 -12 -38 5 -30 19 9 14 23 14 32 0z m-326 -59 c0 -5 -7
-10 -16 -10 -8 0 -12 5 -9 10 3 6 10 10 16 10 5 0 9 -4 9 -10z m-329 -69 l24
-19 -28 -11 c-45 -17 -107 -10 -107 13 0 38 72 49 111 17z m-1266 -231 c0 -22
-39 -19 -43 3 -3 15 1 18 20 15 12 -2 23 -10 23 -18z m-415 -39 c0 -14 -18
-23 -30 -16 -6 4 -8 11 -5 16 8 12 35 12 35 0z m-1315 -202 c10 -15 -1 -23
-20 -15 -9 3 -13 10 -10 16 8 13 22 13 30 -1z"/>
<path d="M1495 760 c10 -11 22 -20 27 -20 15 0 9 28 -8 34 -30 11 -37 6 -19
-14z"/>
<path d="M1570 761 c0 -5 5 -11 12 -13 17 -6 0 -28 -23 -28 -24 0 -24 -5 0
-38 10 -15 30 -51 45 -79 14 -29 30 -53 34 -53 4 0 20 -12 36 -26 21 -20 25
-29 15 -35 -7 -4 -20 -4 -30 1 -15 9 -15 4 -2 -57 7 -37 15 -69 18 -71 4 -4
788 130 854 145 22 6 23 7 7 19 -10 7 -37 16 -59 19 -23 4 -53 14 -67 23 -29
19 -143 62 -183 69 -22 4 -26 2 -21 -11 3 -9 2 -16 -4 -16 -6 0 -12 6 -15 13
-3 9 -43 5 -173 -17 -93 -16 -175 -31 -182 -34 -8 -2 -16 5 -19 17 -3 12 -21
53 -39 92 -30 63 -36 69 -53 59 -14 -7 -22 -7 -26 1 -4 5 -19 7 -34 4 -19 -4
-32 -1 -41 10 -13 16 -50 21 -50 6z"/>
</g>
</svg>
